<!DOCTYPE svg PUBLIC "-//W3C//DTD SVG 1.1//EN" "http://www.w3.org/Graphics/SVG/1.1/DTD/svg11.dtd">
<!-- Uploaded to: SVG Repo, www.svgrepo.com, Transformed by: SVG Repo Mixer Tools -->
<svg fill="#45f3ff" height="105px" width="105px" version="1.1" id="Layer_1" xmlns="http://www.w3.org/2000/svg" xmlns:xlink="http://www.w3.org/1999/xlink" viewBox="0 0 511.998 511.998" xml:space="preserve" stroke="#45f3ff">
<g id="SVGRepo_bgCarrier" stroke-width="0"/>
<g id="SVGRepo_tracerCarrier" stroke-linecap="round" stroke-linejoin="round"/>
<g id="SVGRepo_iconCarrier"> <g> <g> <path d="M457.367,212.683l-118.179,38.399l-14.821,45.612l73.039,100.53h67.574c29.077-40.994,46.374-90.916,47.018-144.847 L457.367,212.683z"/> </g> </g> <g> <g> <path d="M338.155,6.692l-54.721,39.757v124.261l38.801,28.19l118.179-38.399l20.88-64.264 C430.574,55.092,387.777,23.492,338.155,6.692z"/> </g> </g> <g> <g> <path d="M279.979,328.943h-47.96l-73.037,100.53l20.9,64.328c24.046,7.476,49.611,11.505,76.117,11.505 s52.071-4.027,76.117-11.505l20.902-64.328L279.979,328.943z"/> </g> </g> <g> <g> <path d="M173.845,6.692c-49.622,16.8-92.419,48.401-123.138,89.546l20.88,64.262l118.179,38.399l38.801-28.19V46.449 L173.845,6.692z"/> </g> </g> <g> <g> <path d="M172.812,251.081L54.633,212.683L0,252.376c0.644,53.931,17.943,103.853,47.018,144.847h67.574l73.039-100.53 L172.812,251.081z"/> </g> </g> </g>
</svg>